<svg xmlns="http://www.w3.org/2000/svg" viewBox="0 0 32 32" fill="none">
  <title>Gajae Code</title>
  <path d="M16 8.2c2.6 0 4.6 1.6 5.2 3.6.9-.2 2.1.1 3.2 1.3 1.3 1.4 1.5 3.1.8 4.1-.5.7-1.4.9-2.3.7.4 1.3.4 2.7-.2 4.1-1 2.3-3.1 3.8-6.7 3.8s-5.7-1.5-6.7-3.8c-.6-1.4-.6-2.8-.2-4.1-.9.2-1.8 0-2.3-.7-.7-1-.5-2.7.8-4.1 1.1-1.2 2.3-1.5 3.2-1.3C11.4 9.8 13.4 8.2 16 8.2Z" fill="#E11D2E"/>
  <path d="M16 11.4c1.7 0 3 1.1 3.4 2.6.2.8-.1 1.4-.8 1.7-.6.2-1.2 0-1.6-.5-.3-.4-.5-.9-.5-1.4h-1c0 .5-.2 1-.5 1.4-.4.5-1 .7-1.6.5-.7-.3-1-.9-.8-1.7.4-1.5 1.7-2.6 3.4-2.6Z" fill="#7F1D1D"/>
  <path d="M13.2 10.1 11.4 6.8M18.8 10.1 20.6 6.8M12.2 6.6l-1.6-1.8M19.8 6.6l1.6-1.8" stroke="#F87171" stroke-width="1.5" stroke-linecap="round"/>
  <path d="M11.2 20.8c-.8 1.6-1.1 3.2-.6 4.4M20.8 20.8c.8 1.6 1.1 3.2.6 4.4M13.6 22.2c-.4 1.2-.4 2.4 0 3.4M18.4 22.2c.4 1.2.4 2.4 0 3.4" stroke="#B91C1C" stroke-width="1.6" stroke-linecap="round"/>
  <circle cx="13.7" cy="14.2" r="1.05" fill="#FFF7ED"/>
  <circle cx="18.3" cy="14.2" r="1.05" fill="#FFF7ED"/>
  <circle cx="13.9" cy="14.05" r=".45" fill="#111"/>
  <circle cx="18.5" cy="14.05" r=".45" fill="#111"/>
</svg>
